<svg width="4659" height="1000" viewBox="0 0 4659 1000" fill="none" xmlns="http://www.w3.org/2000/svg">
<g clip-path="url(#clip0_10_2)">
<path d="M3320.45 771.106V-0.221558H3561.18V771.106H3320.45Z" fill="#F6A500"/>
<path d="M515.956 1000.22H0.105469V228.894H495.322C736.052 228.894 876.019 313.317 876.019 445.602C876.019 531.132 785.917 586.528 723.671 604.919C797.954 626.634 893.214 675.382 893.214 778.196C893.214 922.225 735.708 1000.22 515.956 1000.22ZM476.063 363.173H240.492V540.882H476.063C578.201 540.882 635.289 505.207 635.289 452.027C635.289 399.069 578.201 363.173 476.063 363.173ZM491.539 676.269H240.492V865.943H491.539C600.555 865.943 652.484 822.734 652.484 770.663C652.484 718.591 600.555 676.49 491.539 676.49V676.269Z" fill="#15182A"/>
<path d="M1627.43 683.802V1000.22H1388.42V683.802L1018.04 228.894H1279.4L1509.47 539.774L1736.45 228.894H1997.81L1627.43 683.802Z" fill="#15182A"/>
<path d="M2680.11 1000.22H2164.26V228.894H2659.47C2900.2 228.894 3040.17 313.317 3040.17 445.602C3040.17 531.132 2950.07 586.528 2887.82 604.919C2962.11 626.634 3057.37 675.382 3057.37 778.196C3057.37 922.225 2899.86 1000.22 2680.11 1000.22ZM2640.22 363.173H2404.64V540.882H2640.22C2742.35 540.882 2799.44 505.207 2799.44 452.027C2799.44 399.069 2742.35 363.173 2640.22 363.173ZM2655.69 676.269H2404.64V865.943H2655.69C2764.71 865.943 2816.64 822.734 2816.64 770.663C2816.64 718.591 2764.71 676.49 2655.69 676.49V676.269Z" fill="#15182A"/>
<path d="M4336.68 363.173V1000.22H4096.29V363.173H3774.05V228.894H4658.91V363.173H4336.68Z" fill="#15182A"/>
</g>
<defs>
<clipPath id="clip0_10_2">
<rect width="4659" height="1000" fill="white"/>
</clipPath>
</defs>
</svg>
