<svg width="9995" height="3213" viewBox="0 0 9995 3213" fill="none" xmlns="http://www.w3.org/2000/svg">
<g clip-path="url(#clip0_8_10)">
<path d="M2017.25 897.008C1654.16 897.008 1370.45 1393.02 1370.45 2057.04C1370.45 2721.07 1646.99 3212.84 2017.25 3212.84C2387.52 3212.84 2668.87 2712.58 2668.87 2052.8C2668.87 1397.27 2392.33 897.008 2017.25 897.008ZM2019.7 2734.29C1812.93 2734.29 1661.42 2445.3 1661.42 2057.21C1661.42 1664.71 1810.48 1375.88 2017.25 1375.88C2226.47 1375.88 2377.9 1669.11 2377.9 2057.21C2377.9 2445.3 2226.47 2734.29 2019.7 2734.29ZM2748.16 1401.68H2928.53V3169.9H3217.05V940.112H2748.16V1401.68ZM644.353 1375.72C795.869 1375.72 916.084 1543.89 961.721 1794.02H1267.11C1211.77 1259.31 966.529 897.008 646.803 897.008C283.708 897.008 0 1393.02 0 2057.21C0 2721.39 276.54 3213 646.803 3213C959.362 3213 1209.41 2850.7 1264.75 2311.58H961.721C918.443 2561.71 798.228 2734.29 646.712 2734.29C437.492 2734.29 290.875 2445.3 290.875 2057.21C290.966 1664.71 435.224 1375.72 644.353 1375.72ZM8230.15 1841.53L8018.57 1785.53C7917.59 1759.73 7845.46 1699.32 7845.46 1556.95C7845.46 1401.68 7939.28 1324.12 8066.66 1324.12C8206.11 1324.12 8295.11 1431.88 8314.35 1608.7H8593.25C8561.95 1160.2 8369.6 897.171 8073.92 897.171C7768.53 897.171 7566.56 1177.51 7566.56 1574.25C7566.56 1953.69 7698.85 2173.78 7965.68 2242.68L8177.26 2298.69C8280.69 2324.48 8338.39 2397.95 8338.39 2535.92C8338.39 2712.74 8237.41 2786.05 8097.96 2786.05C7927.21 2786.05 7831.04 2660.98 7816.61 2471.26H7532.9C7559.4 2906.87 7749.29 3213 8095.51 3213C8410.52 3213 8619.65 2954.22 8619.65 2509.96C8619.65 2113.21 8468.22 1906.18 8230.15 1841.53ZM3072.79 21.5517C2967 21.5517 2887.61 159.515 2887.61 349.236C2887.61 538.956 2966.91 676.919 3072.79 676.919C3178.58 676.919 3257.96 538.956 3257.96 349.236C3257.96 159.515 3178.58 21.5517 3072.79 21.5517ZM7306.9 1703.56C7306.9 1220.61 7143.41 897.171 6797.19 897.171C6470.2 897.171 6287.48 1194.81 6251.37 1651.97H6537.52C6551.95 1475.15 6628.89 1328.53 6792.38 1328.53C6939.09 1328.53 7011.22 1444.94 7011.22 1587.32C7011.22 1772.79 6878.93 1820.14 6715.44 1850.34C6494.25 1893.45 6220.16 2031.41 6220.16 2548.98C6220.16 2950.13 6386.1 3208.75 6650.57 3208.75C6857.34 3208.75 6987.17 3053.48 7052.13 2807.6C7061.75 3027.52 7153.12 3169.9 7280.59 3169.9H7448.89V2708.49H7306.99V1703.56H7306.9ZM7023.19 2264.24C7023.19 2561.88 6878.93 2781.8 6703.38 2781.8C6595.14 2781.8 6503.77 2699.84 6503.77 2527.43C6503.77 2307.5 6650.48 2247.09 6785.12 2221.3C6914.95 2199.74 6987.08 2147.99 7023.19 2048.72V2264.24ZM5491.61 897.008C5330.47 897.008 5195.83 1017.83 5099.66 1220.45V0H4811.14V3169.9H5094.85V2876.66C5191.02 3087.93 5328.11 3213 5491.61 3213C5837.83 3213 6099.94 2721.39 6099.94 2057.21C6099.94 1393.02 5833.02 897.008 5491.61 897.008ZM5448.33 2734.29C5241.56 2734.29 5090.04 2445.3 5090.04 2057.21C5090.04 1669.11 5243.92 1375.88 5450.69 1375.88C5659.91 1375.88 5806.52 1664.87 5806.52 2057.21C5806.52 2445.3 5655.1 2734.29 5448.33 2734.29ZM4121.06 897.008C3933.53 897.008 3810.86 1034.97 3738.73 1229.1V940.112H3452.58V3169.73H3741.09V1957.94C3741.09 1617.19 3861.31 1375.72 4039.23 1375.72C4205.17 1375.72 4308.51 1586.99 4308.51 1893.28V3169.9H4597.02V1854.59C4597.12 1293.76 4436.07 897.008 4121.06 897.008ZM9995 1983.9C9995 1345.68 9735.34 897.171 9386.67 897.171C9016.4 897.171 8744.67 1397.43 8744.67 2057.21C8744.67 2751.6 9035.64 3213 9391.47 3213C9692.06 3213 9927.68 2893.81 9987.74 2441.06H9687.16C9643.88 2639.43 9538.09 2751.6 9396.19 2751.6C9211.02 2751.6 9071.57 2544.57 9040.36 2182.27H9994.91V1983.9H9995ZM9057.23 1811.32C9102.96 1500.78 9232.79 1349.92 9381.86 1349.92C9545.35 1349.92 9670.37 1518.09 9699.23 1811.32H9057.23Z" fill="#0052FF"/>
</g>
<defs>
<clipPath id="clip0_8_10">
<rect width="9995" height="3213" fill="white"/>
</clipPath>
</defs>
</svg>
