<svg width="4901" height="1050" viewBox="0 0 4901 1050" fill="none" xmlns="http://www.w3.org/2000/svg">
<g clip-path="url(#clip0_8_12)">
<path d="M1470.54 709.426C1438.82 692.668 1413.13 668.293 1395 636.304C1376.87 605.836 1367.8 570.796 1367.8 531.189C1367.8 491.582 1376.87 456.544 1395 426.077C1413.13 395.61 1438.82 371.235 1470.54 352.955C1502.27 336.198 1538.53 327.055 1579.33 327.055C1612.57 327.055 1644.3 333.15 1671.49 345.337C1698.69 357.525 1721.35 374.282 1740.99 397.132L1683.58 450.449C1657.89 419.982 1624.65 404.75 1585.37 404.75C1561.2 404.75 1540.04 410.842 1520.41 421.507C1500.76 432.169 1487.16 447.404 1476.59 465.684C1466.01 485.489 1459.97 506.817 1459.97 531.189C1459.97 555.564 1466.01 576.891 1476.59 596.696C1487.16 616.499 1502.27 630.208 1520.41 640.873C1540.04 651.536 1561.2 657.631 1585.37 657.631C1624.65 657.631 1657.89 642.396 1683.58 610.406L1740.99 663.723C1722.86 686.576 1698.69 703.33 1671.49 715.518C1644.3 727.705 1612.57 733.801 1579.33 733.801C1540.04 735.323 1503.79 726.183 1470.54 709.426Z" fill="#2F3C42"/>
<path d="M1907.19 432.169C1925.32 424.554 1944.96 421.507 1967.63 421.507V502.247C1958.56 502.247 1951.01 500.721 1947.99 500.721C1922.3 500.721 1904.17 508.339 1889.06 522.049C1875.46 535.761 1867.91 557.089 1867.91 586.031V729.23H1780.28V426.077H1863.38V465.684C1875.46 450.452 1889.06 439.787 1907.19 432.169Z" fill="#2F3C42"/>
<path d="M2313.6 426.077L2177.62 747.513C2164.03 782.55 2147.41 806.922 2126.25 820.635C2106.61 834.345 2080.93 841.963 2052.22 841.963C2037.11 841.963 2020.49 838.915 2005.38 834.345C1990.27 829.775 1978.19 822.157 1967.61 814.54L1999.34 752.083C2005.38 758.175 2014.45 762.745 2022 765.793C2031.07 768.84 2040.13 770.363 2047.69 770.363C2059.78 770.363 2068.84 767.315 2076.39 761.223C2083.95 755.128 2089.99 745.988 2096.04 732.278L2102.08 730.756L1972.15 426.077H2061.29L2145.9 631.733L2230.51 426.077H2313.6Z" fill="#2F3C42"/>
<path d="M2590.11 439.787C2612.78 453.497 2630.91 470.254 2644.51 494.629C2658.1 517.479 2664.14 544.901 2664.14 576.891C2664.14 608.884 2658.1 634.781 2644.51 659.156C2630.91 682.006 2614.29 700.285 2590.11 713.995C2567.45 726.183 2541.76 733.8 2514.57 733.8C2476.8 733.8 2446.58 721.613 2423.91 697.238V837.39H2336.28V426.077H2419.38V461.114C2440.53 435.217 2472.26 421.507 2513.06 421.507C2541.76 421.507 2565.94 427.599 2590.11 439.787ZM2553.85 637.828C2567.45 622.593 2575 602.788 2575 576.891C2575 550.994 2567.45 531.191 2553.85 515.956C2540.25 500.721 2520.61 493.107 2499.46 493.107C2476.8 493.107 2458.67 500.721 2445.07 515.956C2431.47 531.191 2423.91 550.994 2423.91 576.891C2423.91 602.788 2431.47 622.593 2445.07 637.828C2458.67 653.061 2478.31 660.678 2499.46 660.678C2520.61 660.678 2538.74 653.061 2553.85 637.828Z" fill="#2F3C42"/>
<path d="M2901.35 713.995C2892.29 720.09 2881.71 724.66 2869.62 727.708C2857.54 730.753 2843.94 732.278 2830.34 732.278C2794.08 732.278 2766.89 723.138 2747.24 704.855C2727.6 686.576 2718.53 659.156 2718.53 624.116V499.199H2671.7V432.169H2718.53V359.047H2806.17V432.169H2880.2V499.199H2806.17V622.593C2806.17 634.781 2809.19 645.443 2815.23 651.538C2821.28 659.156 2830.34 662.201 2842.43 662.201C2856.03 662.201 2868.11 659.156 2877.18 651.538L2901.35 713.995Z" fill="#2F3C42"/>
<path d="M2984.43 712.473C2958.76 698.763 2939.11 680.483 2925.52 657.631C2911.92 633.256 2904.36 607.358 2904.36 576.891C2904.36 546.424 2911.92 520.526 2925.52 496.151C2939.11 471.779 2958.76 453.496 2984.43 441.312C3010.12 427.599 3037.33 421.507 3069.06 421.507C3100.79 421.507 3129.49 427.599 3153.67 441.312C3179.33 455.022 3197.47 473.302 3212.58 496.151C3226.2 520.526 3233.75 546.424 3233.75 576.891C3233.75 607.358 3226.2 633.256 3212.58 657.631C3198.99 682.006 3179.33 700.286 3153.67 712.473C3129.49 726.183 3100.79 732.278 3069.06 732.278C3037.33 732.278 3008.61 726.183 2984.43 712.473ZM3123.45 637.828C3137.04 622.593 3144.6 602.788 3144.6 576.891C3144.6 550.994 3137.04 531.191 3123.45 515.956C3109.83 500.721 3090.21 493.107 3069.06 493.107C3046.37 493.107 3028.26 500.721 3013.16 515.956C2998.05 531.191 2991.98 550.994 2991.98 576.891C2991.98 602.788 2999.54 622.593 3013.16 637.828C3028.26 653.061 3046.37 660.678 3069.06 660.678C3091.72 660.678 3109.83 653.061 3123.45 637.828Z" fill="#2F3C42"/>
<path d="M3747.44 334.672V729.227H3673.39L3478.49 490.056V729.227H3389.37V334.672H3463.38L3658.29 573.843V334.672H3747.44Z" fill="#2F3C42"/>
<path d="M4113.06 601.266H3886.43C3890.98 619.546 3900.05 634.781 3915.16 645.443C3930.27 656.109 3949.89 662.201 3972.55 662.201C3987.66 662.201 4002.77 659.153 4014.87 654.583C4026.94 650.013 4037.53 642.396 4048.12 631.734L4094.95 682.006C4066.23 713.996 4025.46 730.753 3971.04 730.753C3937.82 730.753 3907.61 724.661 3881.91 710.948C3856.22 697.238 3835.08 678.958 3821.49 656.109C3807.87 631.734 3800.31 605.836 3800.31 575.369C3800.31 546.424 3807.87 519.004 3821.49 494.629C3835.08 470.254 3854.7 451.974 3878.88 438.265C3903.06 424.552 3930.27 418.459 3960.48 418.459C3989.18 418.459 4016.39 424.552 4040.56 438.265C4064.74 450.449 4082.85 468.732 4096.44 493.104C4110.06 517.479 4116.1 544.902 4116.1 575.369C4114.58 579.939 4114.58 587.556 4113.06 601.266ZM3909.09 503.769C3895.5 514.431 3887.95 529.666 3884.92 549.472H4033.01C4029.98 529.666 4022.42 514.431 4008.83 503.769C3995.21 493.104 3978.62 487.012 3958.96 487.012C3939.34 487.012 3922.71 493.104 3909.09 503.769Z" fill="#2F3C42"/>
<path d="M4635.85 426.077L4527.07 729.23H4443.95L4375.97 541.854L4306.48 729.23H4223.36L4113.06 426.077H4194.66L4265.68 630.211L4339.69 426.077H4413.74L4484.76 630.211L4557.29 426.077H4635.85Z" fill="#2F3C42"/>
<path d="M4685.69 723.135C4661.52 717.043 4643.41 709.425 4628.3 700.285L4657 637.828C4670.59 646.968 4687.21 653.061 4705.35 659.156C4724.98 665.248 4743.12 666.771 4761.26 666.771C4797.51 666.771 4817.16 657.631 4817.16 639.351C4817.16 630.211 4812.61 624.116 4802.03 621.071C4791.47 618.023 4776.36 613.453 4755.19 611.928C4731.04 608.884 4709.87 604.314 4694.76 598.218C4678.14 593.648 4664.55 584.509 4652.48 572.321C4640.37 560.134 4634.34 541.854 4634.34 519.004C4634.34 499.199 4640.37 482.441 4650.96 468.732C4661.52 455.022 4678.14 442.834 4699.31 433.694C4720.46 426.077 4744.63 421.507 4773.33 421.507C4794.47 421.507 4815.65 424.554 4836.79 429.124C4857.93 433.694 4874.56 439.787 4889.66 448.927L4860.97 511.386C4835.27 496.151 4805.06 488.537 4774.85 488.537C4756.71 488.537 4741.6 491.581 4732.53 496.151C4723.49 500.721 4718.94 508.339 4718.94 515.956C4718.94 525.096 4723.49 531.191 4734.05 535.761C4744.63 538.806 4759.74 543.376 4782.4 546.424C4806.58 550.994 4827.72 555.564 4842.83 560.134C4857.93 564.703 4871.55 573.846 4883.63 586.031C4895.73 598.218 4900.25 614.976 4900.25 637.828C4900.25 656.108 4894.21 672.866 4883.63 688.098C4873.04 703.333 4856.45 713.995 4835.27 721.613C4814.13 729.23 4788.44 733.8 4759.74 733.8C4734.05 732.278 4709.87 729.23 4685.69 723.135Z" fill="#2F3C42"/>
<mask id="mask0_8_12" style="mask-type:luminance" maskUnits="userSpaceOnUse" x="0" y="0" width="1051" height="1050">
<path d="M1050.64 0.0537109H0.75V1049.95H1050.64V0.0537109Z" fill="white"/>
</mask>
<g mask="url(#mask0_8_12)">
<path d="M98.5655 239.047C88.8018 244.684 80.6948 252.793 75.061 262.559C69.4268 272.325 66.4644 283.402 66.4717 294.677V685.471L251.759 578.492V401.655C251.752 390.381 254.715 379.304 260.349 369.537C265.983 359.773 274.089 351.663 283.853 346.026L436.94 257.554V43.5962L98.5655 239.047Z" fill="#FEC40E"/>
<path d="M622.234 43.5941V257.552L561.681 222.571C551.926 216.937 540.856 213.971 529.59 213.971C518.321 213.971 507.253 216.937 497.495 222.571L436.945 257.552V43.5941L497.495 8.61251C507.253 2.9789 518.321 0.0131836 529.59 0.0131836C540.856 0.0131836 551.926 2.9789 561.681 8.61251L622.234 43.5941Z" fill="url(#paint0_linear_8_12)"/>
<path d="M992.806 257.554V257.661L807.517 364.533L622.231 257.554V43.5962L992.806 257.554Z" fill="#FED504"/>
<path d="M529.586 525.108V739.068L344.298 632.089V418.13L529.586 525.108Z" fill="#FED504"/>
<path d="M714.875 418.127L529.586 525.108L344.298 418.127L529.586 311.041L714.875 418.127Z" fill="#FFE600"/>
<path d="M807.517 685.576L561.466 827.539C551.707 833.17 540.64 836.136 529.371 836.136C518.105 836.136 507.037 833.17 497.279 827.539L344.298 739.065L159.011 846.046L497.492 1041.5C507.25 1047.13 518.318 1050.1 529.587 1050.1C540.853 1050.1 551.923 1047.13 561.679 1041.5L992.805 792.554L807.517 685.576Z" fill="#FFE600"/>
<path d="M714.875 418.13V632.089L529.587 739.068V525.108L714.875 418.13Z" fill="#FEC40E"/>
<path d="M344.301 738.96L251.656 792.449L159.012 845.938L98.4619 810.956C88.714 805.327 80.6172 797.234 74.984 787.491C69.351 777.744 66.3798 766.688 66.3682 755.434V685.47L159.012 631.978L251.656 578.489V648.348C251.649 659.623 254.611 670.699 260.245 680.466C265.879 690.23 273.986 698.34 283.75 703.978L344.301 738.96Z" fill="url(#paint1_linear_8_12)"/>
</g>
</g>
<defs>
<linearGradient id="paint0_linear_8_12" x1="436.945" y1="128.75" x2="622.234" y2="128.75" gradientUnits="userSpaceOnUse">
<stop stop-color="#FEC40E"/>
<stop offset="1" stop-color="#FED504"/>
</linearGradient>
<linearGradient id="paint1_linear_8_12" x1="232.935" y1="803.467" x2="140.184" y2="642.891" gradientUnits="userSpaceOnUse">
<stop stop-color="#FFE600"/>
<stop offset="1" stop-color="#FEC40E"/>
</linearGradient>
<clipPath id="clip0_8_12">
<rect width="4899.5" height="1049.89" fill="white" transform="translate(0.75 0.0537109)"/>
</clipPath>
</defs>
</svg>
