<svg width="1268" height="317" viewBox="0 0 1268 317" fill="none" xmlns="http://www.w3.org/2000/svg">
<g clip-path="url(#clip0_7_52)">
<path d="M718.811 103.328C718.811 66.334 719.451 31.8913 721.371 0L623.439 18.497V27.4266L633.04 28.7022C640.081 29.34 644.561 31.8913 647.122 35.7183C649.682 40.1831 651.602 46.5614 652.882 56.1288C654.163 74.6258 655.443 116.722 654.803 183.056C654.803 248.753 654.163 290.211 652.882 306.157C688.087 313.811 715.61 317 736.093 317C774.498 317 804.582 306.157 826.344 283.833C848.107 262.147 859.628 231.531 859.628 193.899C859.628 163.922 851.307 139.046 834.665 119.274C818.023 99.501 796.901 89.9336 771.937 89.9336C755.295 89.9336 738.013 94.3984 718.811 103.328ZM720.731 299.779C719.451 279.368 718.171 218.137 718.171 117.998C723.931 116.085 731.612 114.809 741.214 114.809C756.575 114.809 768.737 122.463 777.698 138.408C786.659 154.354 791.14 173.489 791.14 197.726C791.14 227.704 786.019 251.942 775.778 272.352C765.537 292.125 752.735 302.33 736.733 302.33C731.612 301.054 726.492 300.417 720.731 299.779ZM256.032 6.37827H0V19.1348L13.4417 20.4105C23.683 22.3239 30.7239 26.1509 35.2044 31.8913C39.685 38.2696 42.2453 48.4749 42.8854 62.507C48.0061 131.392 48.0061 195.813 42.8854 255.131C41.6052 269.163 39.0449 279.368 35.2044 285.746C30.7239 292.125 23.683 295.952 13.4417 297.227L0 299.141V311.897H165.141V299.141L147.859 297.865C137.617 296.59 130.576 292.125 126.096 286.384C121.615 280.006 119.055 269.801 118.415 255.769C116.495 230.256 115.215 200.915 115.215 168.386L149.779 169.024C168.341 169.662 181.143 183.694 187.544 211.759H200.345V107.793H187.544C181.143 135.219 168.981 149.252 149.779 149.889L115.215 150.527C115.215 93.1227 116.495 52.3018 118.415 27.4266H168.981C204.826 27.4266 229.149 50.3883 243.231 96.3119L258.593 91.8471L256.032 6.37827ZM225.948 202.829C225.948 235.996 235.55 263.423 254.112 285.109C272.674 306.795 300.198 317 334.762 317C369.327 317 397.49 306.157 417.973 283.833C438.455 262.147 448.057 234.72 448.057 201.553C448.057 168.386 438.455 140.96 419.893 119.274C401.331 97.5875 373.807 87.3823 339.243 87.3823C304.678 87.3823 276.515 98.2254 256.032 120.549C235.55 142.235 225.948 169.662 225.948 202.829ZM368.686 130.117C376.367 148.614 379.568 172.851 379.568 202.191C379.568 269.801 365.486 302.968 337.963 302.968C323.881 302.968 312.999 293.4 305.319 274.266C297.638 255.131 294.437 230.893 294.437 202.191C294.437 135.219 308.519 102.052 336.042 102.052C350.124 101.414 361.006 110.982 368.686 130.117ZM909.555 285.109C930.677 306.157 957.561 317 989.565 317C1009.41 317 1026.69 313.173 1042.05 304.881C1057.41 297.227 1069.57 287.66 1077.9 276.179L1071.5 268.525C1057.41 279.368 1041.41 284.471 1022.85 284.471C997.246 284.471 977.403 276.179 963.962 258.958C949.88 241.736 943.479 220.05 944.759 191.986H1081.74C1081.74 161.37 1074.06 136.495 1058.05 116.722C1042.05 97.5875 1019.65 88.0201 990.845 88.0201C955 88.0201 927.477 99.501 907.635 121.825C887.792 144.149 878.191 171.575 878.191 204.105C878.191 237.272 888.432 264.06 909.555 285.109ZM956.921 125.014C963.962 109.706 972.923 102.052 985.084 102.052C1004.29 102.052 1013.89 126.29 1013.89 175.402L946.039 176.678C946.679 157.543 949.88 140.322 956.921 125.014ZM1253.92 99.501C1236.64 91.8471 1214.87 87.3823 1188.63 87.3823C1161.75 87.3823 1140.62 94.3984 1124.62 107.793C1108.62 121.187 1100.3 137.771 1100.3 157.543C1100.3 174.765 1105.42 188.159 1115.02 197.726C1124.62 207.294 1139.98 215.586 1159.83 222.602C1177.75 228.98 1190.55 235.358 1196.95 241.099C1203.35 247.477 1207.19 254.493 1207.19 264.06C1207.19 272.99 1203.99 281.282 1196.95 287.66C1190.55 294.676 1181.59 297.865 1170.07 297.865C1141.9 297.865 1120.78 277.455 1106.06 236.634L1095.18 239.823L1097.74 303.606C1120.78 312.535 1146.38 317 1174.55 317C1203.99 317 1226.39 310.622 1243.04 297.227C1259.68 284.471 1268 265.974 1268 243.012C1268 227.704 1264.16 214.948 1255.84 205.38C1247.52 195.813 1234.08 187.521 1214.87 179.867C1193.75 172.213 1179.03 165.197 1171.35 158.819C1163.67 152.441 1159.83 144.787 1159.83 135.219C1159.83 125.652 1162.39 117.998 1168.15 111.62C1173.91 105.241 1180.95 102.69 1189.91 102.69C1215.51 102.69 1234.08 121.187 1245.6 157.543L1256.48 154.354L1253.92 99.501ZM638.16 93.7606C629.199 89.2958 619.598 87.3823 608.717 87.3823C597.835 87.3823 586.954 91.8471 574.793 100.777C562.631 109.706 553.67 121.825 546.629 138.408L547.269 87.3823L449.977 106.517V115.447L459.578 116.085C471.74 117.36 478.78 126.928 480.061 144.149C483.901 183.694 483.901 225.791 480.061 270.439C478.78 287.66 471.74 296.59 459.578 298.503L449.977 299.779V311.897H585.674V299.779L568.392 298.503C556.23 297.227 549.189 287.66 547.909 270.439C544.069 233.445 543.429 193.899 546.629 153.078C550.469 146.7 558.791 142.873 571.592 141.598C584.394 140.322 599.116 144.149 614.478 153.078L638.16 93.7606Z" fill="black"/>
</g>
<defs>
<clipPath id="clip0_7_52">
<rect width="1268" height="317" fill="white"/>
</clipPath>
</defs>
</svg>
